<?xml version="1.0" encoding="UTF-8" standalone="no"?>
<svg width="76px" height="40px" viewBox="0 0 76 40" version="1.1" xmlns="http://www.w3.org/2000/svg" xmlns:xlink="http://www.w3.org/1999/xlink">
    <!-- Generator: Sketch 39 (31667) - http://www.bohemiancoding.com/sketch -->
    <title>Page 1</title>
    <desc>Created with Sketch.</desc>
    <defs>
        <polygon id="path-1" points="0 0.000400672542 0 39.6656599 75.4714717 39.6656599 75.4714717 0.000400672542 1.02283224e-20 0.000400672542"></polygon>
    </defs>
    <g id="Product-Pages---HiFi" stroke="none" stroke-width="1" fill="none" fill-rule="evenodd" opacity="0.3">
        <g id="enterprise_product_innovationsprint_expanded" transform="translate(-139.000000, -6034.000000)">
            <g id="Page-1" transform="translate(139.000000, 6034.000000)">
                <mask id="mask-2" fill="white">
                    <use xlink:href="#path-1"></use>
                </mask>
                <g id="Clip-2"></g>
                <path d="M32.5243019,23.0055849 C31.1756226,20.2086038 29.2722264,18.9829434 28.1990189,18.5980377 C30.446566,17.5995472 31.625434,16.242566 32.5243019,13.5406792 L32.5243019,23.0055849 Z M59.4488302,0.877283019 L53.9990189,23.0561509 L48.5295849,0.877283019 L32.4948679,0.877283019 L32.4948679,9.06898113 C30.5703396,1.90067925 23.7786415,0.102188679 17.4835472,0.00256603774 C9.81562264,-0.0970566038 1.77335849,3.22445283 1.47826415,13.3655849 L12.0888302,13.3655849 C12.0888302,10.3044528 14.436,8.55350943 17.0835472,8.59426415 C20.3310943,8.56935849 21.8299623,9.95577358 21.9046792,12.1165283 C21.7914717,13.9897358 20.6843019,15.2946415 17.1084528,15.2946415 L13.5401509,15.2946415 L13.5401509,22.6561509 L16.7816604,22.6561509 C18.6163774,22.6561509 21.1809057,23.6546415 21.281283,26.277283 C21.4050566,29.3995472 19.2322264,30.7738868 16.5597736,30.7987925 C11.7884528,30.6236981 11.0148679,26.9557736 11.0148679,23.8055849 L-0.000226415094,23.8055849 C0.0503396226,25.9286038 -0.474943396,39.7648302 16.785434,39.6644528 C25.0518491,39.7399245 30.8209057,36.2682264 32.5190189,31.4727547 L32.5190189,38.8161509 L43.3846792,38.8161509 L43.3846792,14.8886038 L49.2533585,38.8161509 L58.7446792,38.8161509 L64.6397736,14.9135094 L64.6397736,38.8410566 L75.4714717,38.8410566 L75.4714717,0.877283019 L59.4488302,0.877283019 Z" id="Fill-1" fill="#232A32" mask="url(#mask-2)"></path>
            </g>
        </g>
    </g>
</svg>