<?xml version="1.0" encoding="UTF-8" standalone="no"?>
<svg width="102px" height="50px" viewBox="0 0 102 50" version="1.1" xmlns="http://www.w3.org/2000/svg" xmlns:xlink="http://www.w3.org/1999/xlink">
    <!-- Generator: Sketch 39 (31667) - http://www.bohemiancoding.com/sketch -->
    <title>Page 1</title>
    <desc>Created with Sketch.</desc>
    <defs>
        <polygon id="path-1" points="19.53125 23.4707303 19.53125 0.453125 0.646953125 0.453125 0.646953125 23.4707303 19.53125 23.4707303"></polygon>
        <polygon id="path-3" points="20.7356005 0.30390625 0.610379274 0.30390625 0.610379274 16.020378 20.7356005 16.020378 20.7356005 0.30390625"></polygon>
    </defs>
    <g id="Product-Pages---HiFi" stroke="none" stroke-width="1" fill="none" fill-rule="evenodd" opacity="0.3">
        <g id="enterprise_product_innovationsprint_expanded" transform="translate(-139.000000, -5937.000000)">
            <g id="Page-1" transform="translate(139.000000, 5937.000000)">
                <path d="M1.334375,38.7521875 C1.334375,40.0896875 0.16171875,40.785 0.16171875,40.785 L6.6296875,40.785 C6.4078125,40.785 5.175,39.6490625 5.175,38.6951562 L5.175,29.519375 L10.528125,29.519375 C10.528125,29.519375 12.1476563,29.7459375 12.1476563,30.4740625 L12.1476563,27.11625 L5.175,27.11625 L5.175,20.4748437 L11.9773438,20.4748437 C12.3695313,20.4748437 13.7632813,21.1295312 13.8195313,21.913125 C13.8796875,22.7084375 13.8195313,18.1178125 13.8195313,18.1178125 L0,18.1178125 C0,18.1178125 1.271875,18.9029687 1.334375,20.1896875 C1.39296875,21.475625 1.334375,37.413125 1.334375,38.7521875" id="Fill-1" fill="#232A32"></path>
                <path d="M35.7726562,18.118125 C35.9929687,18.118125 37.2210937,19.0329687 37.1578125,20.2103125 L37.1578125,42.2571875 C37.1578125,42.7571875 36.4976562,47.6735937 33.5875,49.693125 C33.5289062,49.7407812 36.6671875,49.2415625 38.775,47.12125 C39.1125,46.7884375 41.0570312,45.443125 41.0570312,40.7540625 C41.0570312,35.7189062 41.0085937,21.5040625 41.0085937,20.155625 C41.0085937,18.6454687 42.5125,18.118125 42.5125,18.118125 L35.7726562,18.118125 Z" id="Fill-3" fill="#232A32"></path>
                <path d="M16.4474219,20.2032031 C16.4997656,19.0266406 15.3771094,18.1180469 15.1497656,18.1180469 L21.8997656,18.1180469 C21.8997656,18.1180469 20.4771094,18.9641406 20.4771094,20.1477344 C20.4771094,20.8938281 20.5005469,32.0719531 20.5005469,34.0235156 C20.5005469,35.9867969 21.6169531,38.7250781 24.8919531,38.7250781 C27.4802344,38.7250781 28.6357031,35.9758594 28.6357031,34.0235156 C28.6357031,32.3461719 28.5958594,21.4211719 28.5958594,20.2383594 C28.6513281,19.0735156 27.5192969,18.1180469 27.2989844,18.1180469 L34.0302344,18.1180469 C34.0302344,18.1180469 32.6239844,18.8828906 32.6239844,20.0524219 C32.6239844,20.8008594 32.6153906,34.1617969 32.6153906,34.1617969 C32.6153906,34.1617969 32.5794531,36.7000781 31.1333594,38.3649219 C30.0185156,39.6336719 28.1528906,41.0782031 24.9583594,41.1336719 C21.2950781,41.1930469 19.6130469,39.9094531 17.9989844,38.3305469 C16.8278906,37.1883594 16.5232031,34.9133594 16.4755469,33.9750781 C16.4364844,32.1258594 16.4474219,20.9282031 16.4474219,20.2032031" id="Fill-5" fill="#232A32"></path>
                <g id="Group-9" transform="translate(82.031250, 17.664922)">
                    <mask id="mask-2" fill="white">
                        <use xlink:href="#path-1"></use>
                    </mask>
                    <g id="Clip-8"></g>
                    <path d="M1.94929687,2.53828125 C1.99773437,1.36171875 0.871953125,0.453125 0.646953125,0.453125 L7.39773437,0.453125 C7.39773437,0.453125 5.97117187,1.29921875 5.97117187,2.4828125 C5.97117187,3.22890625 5.99929687,14.4070312 5.99929687,16.3585937 C5.99929687,18.321875 7.11726562,21.0601562 10.3914844,21.0601562 C12.9766406,21.0601562 14.1282031,18.3109375 14.1282031,16.3585937 C14.1282031,14.68125 14.0953906,3.75625 14.0953906,2.5734375 C14.1508594,1.40859375 13.0157031,0.453125 12.7938281,0.453125 L19.5313281,0.453125 C19.5313281,0.453125 18.1235156,1.21796875 18.1235156,2.3875 C18.1235156,3.1359375 18.1102344,16.496875 18.1102344,16.496875 C18.1102344,16.496875 18.0789844,19.0351562 16.6321094,20.7 C15.5211719,21.96875 13.6524219,23.4132812 10.4555469,23.46875 C6.78992187,23.528125 5.11414062,22.2445312 3.49929687,20.665625 C2.32898437,19.5234375 2.02039062,17.2484375 1.97351562,16.3101562 C1.93679687,14.4609375 1.94929687,3.26328125 1.94929687,2.53828125" id="Fill-7" fill="#232A32" mask="url(#mask-2)"></path>
                </g>
                <path d="M49.25,38.6911719 C49.25,39.9263281 50.6914062,40.7849219 50.7460937,40.7849219 L44.0109375,40.7849219 C44.0109375,40.7849219 45.384375,39.9263281 45.384375,38.7442969 C45.384375,38.0044531 45.3960937,20.9341406 45.3960937,20.2107031 C45.459375,19.0333594 44.2367187,18.1185156 44.0148437,18.1185156 L50.7460937,18.1185156 C50.7460937,18.1185156 49.25,18.9817969 49.25,20.1521094 L49.25,38.6911719 Z" id="Fill-10" fill="#232A32"></path>
                <path d="M57.4180469,20.58125 C57.4180469,21.3054687 57.4375781,38.0828125 57.4375781,38.8273437 C57.4375781,40.0039062 56.0110156,40.784375 56.0110156,40.784375 L62.7360156,40.784375 C62.6867969,40.784375 61.3586719,39.91875 61.3586719,38.6867187 C61.3586719,37.9601562 61.4250781,20.6351562 61.4250781,20.6351562 C61.4274219,20.4773437 63.9891406,20.5125 64.7258594,20.5320312 C65.2430469,20.540625 66.2883594,20.8414062 66.4719531,22.1414062 C66.5274219,22.5398437 67.8563281,18.1179687 67.8563281,18.1179687 L52.1922656,18.1179687 L50.8633594,22.5398437 C50.8633594,22.5398437 52.4774219,20.58125 53.1899219,20.58125 C54.2110156,20.5914062 57.4180469,20.58125 57.4180469,20.58125" id="Fill-12" fill="#232A32"></path>
                <path d="M68.69125,40.7571875 L67.4592187,36.45875 C67.4592187,36.45875 69.36,38.6946875 72.70375,38.8626562 C76.0467187,39.0267187 77.06625,37.4126562 77.3951562,37.07125 C77.7232812,36.7353125 79.485,34.4439062 76.781875,32.7657812 C73.863125,30.9735937 71.2459375,29.9689062 70.07875,28.9642187 C68.9139062,27.9540625 67.2420312,25.7720312 67.9115625,22.64 C68.5826562,19.5173437 71.9764062,18.1720312 73.3607812,17.9532812 C74.7810937,17.7321875 78.51,17.7814062 79.9646875,18.3407812 C80.0592187,18.5110937 79.9646875,21.805625 79.9646875,21.805625 C79.8873437,22.024375 79.4076562,20.19 75.9459375,20.1275 C72.4810937,20.0767187 71.9240625,22.4235937 71.8740625,22.5853125 C71.813125,22.755625 70.8670312,25.2204687 73.588125,26.6157812 C76.3248437,28.0157812 79.0185937,28.8860937 81.0053125,31.3728125 C83.2904687,34.2196875 81.2607812,37.918125 80.6389062,38.6321875 C79.70375,39.6985937 76.9451562,41.3228125 73.9873437,41.3228125 C69.9842187,41.3196875 68.7498437,40.8204687 68.69125,40.7571875" id="Fill-14" fill="#232A32"></path>
                <g id="Group-18" transform="translate(32.812500, 0.477422)">
                    <mask id="mask-4" fill="white">
                        <use xlink:href="#path-3"></use>
                    </mask>
                    <g id="Clip-17"></g>
                    <path d="M20.7313281,6.56851563 C20.8328906,9.19507813 19.1344531,12.9185156 14.4821094,13.0013281 C11.0375781,13.0497656 9.36726562,10.3614844 8.97351562,9.92320313 C8.58835937,9.47476563 7.74617187,7.80289063 5.63054687,7.74742188 C3.51257812,7.68648438 2.56414062,9.64273438 2.51414062,10.6513281 C2.45789062,11.6669531 2.89695312,14.1161719 5.67585937,14.1700781 C8.23757812,14.2364844 9.47820312,11.4919531 9.47820312,11.4919531 L9.47820312,14.3427344 C9.47820312,14.3427344 8.13289062,15.9591406 5.74695312,16.0192969 C3.34382812,16.0739844 0.505546875,14.0513281 0.613359375,10.5380469 C0.727421875,7.01695313 4.23523437,5.78179688 5.85007812,5.84039063 C7.47195312,5.89820313 8.86023437,6.67789063 10.0867969,8.36226563 C11.3094531,10.0403906 12.9235156,11.3919531 15.2742969,10.9317969 C16.7008594,10.6513281 18.8266406,9.53179688 18.8266406,6.45835938 C18.8266406,3.38257813 15.6688281,2.25210938 14.4336719,2.26460938 C13.6180469,2.27242188 12.5391406,2.48804688 11.3094531,3.65835938 C10.0867969,4.83570313 9.52664062,6.62164063 9.52664062,6.62164063 L9.52664062,2.87945313 C9.52664062,2.87945313 11.4242969,0.360703125 14.2602344,0.304453125 C17.1024219,0.249765625 20.5828906,2.54664063 20.7313281,6.56851563" id="Fill-16" fill="#232A32" mask="url(#mask-4)"></path>
                </g>
            </g>
        </g>
    </g>
</svg>