<?xml version="1.0" encoding="UTF-8" standalone="no"?>
<svg width="50px" height="50px" viewBox="0 0 50 50" version="1.1" xmlns="http://www.w3.org/2000/svg" xmlns:xlink="http://www.w3.org/1999/xlink">
    <!-- Generator: Sketch 3.8.3 (29802) - http://www.bohemiancoding.com/sketch -->
    <title>Page 1</title>
    <desc>Created with Sketch.</desc>
    <defs></defs>
    <g id="Product-Pages---HiFi" stroke="none" stroke-width="1" fill="none" fill-rule="evenodd" opacity="0.349999994">
        <g id="enterprise_product_innovationsprint_expanded" transform="translate(-640.000000, -868.000000)" fill="#5C5C5C">
            <g id="Page-1" transform="translate(640.000000, 868.000000)">
                <g id="Group-3">
                    <path d="M23.1844375,1.2694375 C20.2531875,1.4794375 17.3713125,2.2631875 14.7206875,3.5319375 C10.4581875,5.5856875 6.8125625,8.9244375 4.4475625,13.0281875 C0.9256875,18.9481875 0.2463125,26.4381875 2.5538125,32.9169375 C4.0350625,37.1313125 6.7394375,40.8913125 10.2350625,43.6650625 C14.2975625,46.8869375 19.4363125,48.7438125 24.6263125,48.7881875 C28.4150625,48.8719375 32.2225625,48.0106875 35.6050625,46.3038125 C39.9156875,44.1713125 43.5369375,40.6831875 45.8519375,36.4713125 C48.1650625,32.2875625 49.1800625,27.3881875 48.6656875,22.6338125 C47.9813125,14.9181875 43.1613125,7.7688125 36.3588125,4.1038125 C32.3694375,1.9056875 27.7263125,0.8994375 23.1844375,1.2694375 M23.1906875,0.0694375 C28.1231875,-0.3055625 33.1575625,0.8463125 37.4394375,3.3231875 C40.8644375,5.2975625 43.8250625,8.0831875 45.9694375,11.4088125 C48.6319375,15.4744375 50.0400625,20.3406875 49.9988125,25.1994375 C49.9675625,30.2769375 48.3513125,35.3375625 45.3975625,39.4719375 C42.4013125,43.7138125 38.0444375,46.9800625 33.1288125,48.6519375 C28.7631875,50.1606875 23.9775625,50.3981875 19.4725625,49.3888125 C14.7481875,48.3369375 10.3594375,45.8506875 7.0019375,42.3656875 C3.4444375,38.6813125 1.0356875,33.8844375 0.3006875,28.8088125 C-0.4230625,24.2881875 0.1750625,19.5731875 1.9413125,15.3550625 C3.5800625,11.4313125 6.2494375,7.9538125 9.5919375,5.3294375 C13.4644375,2.2738125 18.2669375,0.4113125 23.1906875,0.0694375" id="Fill-1"></path>
                </g>
                <path d="M19.5388125,11.9539375 C18.1850625,12.6839375 17.2550625,13.9870625 16.5731875,15.3320625 C15.8494375,16.7145625 15.5494375,18.2583125 15.4081875,19.7970625 C14.7406875,19.7076875 14.2025625,19.1895625 14.0494375,18.5395625 C13.7375625,17.5895625 14.0663125,16.6145625 14.2369375,15.6764375 C14.3119375,15.4045625 14.1044375,15.1826875 13.9938125,14.9589375 C13.4269375,14.9239375 12.8463125,15.2039375 12.5875625,15.7245625 C11.8138125,17.1708125 11.8819375,19.1214375 12.9519375,20.4039375 C13.5656875,21.1808125 14.5331875,21.5645625 15.4956875,21.6664375 C15.8206875,22.6676875 16.4550625,23.6426875 17.4750625,24.0364375 C18.7231875,24.5389375 20.0938125,24.0120625 21.1775625,23.3558125 C21.1394375,23.7583125 21.1175625,24.1708125 20.9769375,24.5545625 C20.5969375,24.8608125 20.1325625,25.0401875 19.7063125,25.2776875 C17.6144375,26.3801875 15.4819375,27.4908125 13.7238125,29.0976875 C12.4431875,30.3001875 11.4350625,31.9001875 11.2419375,33.6720625 C11.1475625,35.0658125 11.7025625,36.5945625 12.9225625,37.3608125 C14.1981875,38.2045625 15.8800625,38.1583125 17.2694375,37.6333125 C19.0231875,36.9651875 20.3300625,35.4789375 21.1931875,33.8570625 C22.4706875,31.5601875 22.6900625,28.8814375 22.8763125,26.3108125 C22.9275625,26.0108125 22.8638125,25.5851875 23.2181875,25.4551875 C25.3056875,24.2814375 27.3344375,23.0033125 29.2744375,21.5964375 C29.5038125,21.8789375 29.7313125,22.1626875 29.9469375,22.4539375 C28.9488125,23.0495625 27.9525625,23.6908125 27.1981875,24.5933125 C24.3794375,27.6764375 24.3325625,32.9695625 27.2881875,35.9789375 C28.7981875,37.5733125 31.1206875,38.2545625 33.2700625,37.9364375 C35.2469375,37.6539375 37.0450625,36.4108125 38.0419375,34.6889375 C39.3706875,32.4945625 39.1538125,29.4264375 37.4250625,27.5126875 C35.8081875,25.7264375 32.6625625,25.7620625 31.0813125,27.5739375 C29.8381875,28.8833125 29.7975625,31.1958125 31.0944375,32.4770625 C31.6206875,33.0020625 32.5363125,33.3189375 33.1963125,32.8670625 C33.6225625,32.5601875 33.5825625,31.9039375 33.2394375,31.5489375 C32.7944375,31.0139375 32.2694375,30.3920625 32.4013125,29.6426875 C32.5344375,28.6683125 33.6244375,28.0714375 34.5419375,28.2776875 C35.3275625,28.3995625 35.9544375,29.0139375 36.2456875,29.7333125 C36.9331875,31.3689375 36.5431875,33.3976875 35.3088125,34.6701875 C34.0013125,36.0345625 31.7250625,36.2489375 30.1463125,35.2395625 C28.7444375,34.3764375 27.9463125,32.7764375 27.7006875,31.1876875 C27.4419375,29.2739375 27.8088125,27.2083125 28.9969375,25.6483125 C29.7606875,24.6595625 30.8269375,23.8483125 32.0544375,23.5551875 C33.0850625,23.6333125 34.1538125,23.8201875 35.1625625,23.4908125 C35.6375625,23.3289375 36.0994375,22.7970625 35.8569375,22.2776875 C35.5963125,21.7439375 34.9538125,21.5839375 34.4194375,21.4720625 C33.6194375,21.3139375 32.8250625,21.5264375 32.0438125,21.6764375 C31.4988125,21.4889375 31.2100625,20.9158125 31.0088125,20.4120625 C32.5238125,19.2789375 34.0231875,18.0470625 35.0525625,16.4351875 C35.6525625,15.4670625 36.0413125,14.2776875 35.7600625,13.1401875 C35.5381875,12.3864375 34.9206875,11.7458125 34.1319375,11.6014375 C32.8175625,11.2714375 31.4731875,11.9345625 30.5806875,12.8758125 C29.1450625,14.4333125 28.4163125,16.5920625 28.4831875,18.6989375 C28.4638125,19.1333125 28.6325625,19.5895625 28.5081875,20.0083125 C27.4331875,20.8751875 26.2300625,21.5739375 25.0713125,22.3226875 C24.4050625,22.7089375 23.7706875,23.1551875 23.0638125,23.4676875 C23.0763125,22.7970625 23.1106875,22.1170625 23.3013125,21.4708125 C23.8119375,20.7745625 24.4525625,20.1689375 24.8569375,19.3951875 C25.1531875,18.8620625 25.4325625,18.1858125 25.1238125,17.5964375 C24.8406875,17.1601875 24.2156875,17.2020625 23.8063125,17.4201875 C22.9338125,17.8583125 22.4544375,18.7833125 22.1025625,19.6495625 C21.8613125,20.2045625 21.8344375,20.8920625 21.3163125,21.2845625 C20.5975625,21.9139375 19.7313125,22.5445625 18.7313125,22.5083125 C18.1594375,22.5114375 17.7788125,21.9739375 17.6575625,21.4695625 C19.2388125,20.8558125 20.5575625,19.7108125 21.6269375,18.4170625 C22.6169375,17.1451875 23.4038125,15.6433125 23.5363125,14.0145625 C23.6113125,13.1945625 23.3175625,12.2651875 22.5681875,11.8364375 C21.6319375,11.3258125 20.4581875,11.4701875 19.5388125,11.9539375 M18.9775625,3.5314375 C23.1306875,2.3708125 27.6275625,2.4208125 31.7375625,3.7470625 C31.9150625,3.8026875 32.0531875,3.9345625 32.1931875,4.0526875 C31.5150625,4.0020625 30.8931875,3.6958125 30.2269375,3.5814375 C28.5469375,3.2458125 26.8056875,3.0795625 25.1031875,3.3339375 C24.0369375,3.5251875 22.9169375,3.9383125 22.2406875,4.8289375 C21.7306875,5.4908125 21.6769375,6.5301875 22.2669375,7.1589375 C22.9225625,7.8514375 24.0863125,7.8145625 24.8131875,7.2539375 C25.6719375,6.6239375 26.5031875,5.8726875 27.5744375,5.6383125 C29.7525625,5.0989375 32.0344375,5.5333125 34.1438125,6.1595625 C36.6763125,6.8508125 39.0713125,8.1001875 41.0131875,9.8720625 C44.2513125,12.7326875 46.1981875,16.8389375 46.9369375,21.0495625 C47.5800625,24.6420625 47.3875625,28.3951875 46.2713125,31.8764375 C46.2319375,32.0408125 46.1288125,32.1351875 45.9594375,32.1601875 C46.6056875,29.7908125 47.0856875,27.2751875 46.6031875,24.8276875 C46.3488125,23.6464375 45.7669375,22.3139375 44.5238125,21.9101875 C43.5719375,21.5739375 42.4131875,22.2270625 42.3369375,23.2620625 C42.1550625,24.3695625 43.0600625,25.1676875 43.6225625,25.9970625 C44.8338125,27.7345625 44.6838125,29.9876875 44.3875625,31.9808125 C43.8313125,34.6770625 42.9313125,37.3645625 41.2969375,39.6133125 C38.7731875,43.2351875 34.7550625,45.6251875 30.5069375,46.6458125 C26.8156875,47.5283125 22.9056875,47.5220625 19.2200625,46.6126875 C18.7356875,46.4676875 18.1838125,46.4045625 17.8069375,46.0320625 C18.5100625,46.0301875 19.1606875,46.3358125 19.8488125,46.4451875 C21.7269375,46.7864375 23.6888125,46.9970625 25.5656875,46.5276875 C26.4156875,46.2926875 27.2775625,45.8889375 27.8119375,45.1595625 C28.3069375,44.4795625 28.2975625,43.4395625 27.6875625,42.8308125 C27.1606875,42.2758125 26.2831875,42.1620625 25.6088125,42.5114375 C24.8088125,42.9451875 24.1963125,43.6595625 23.3794375,44.0683125 C21.7306875,44.8676875 19.8194375,44.7501875 18.0600625,44.4551875 C15.1438125,43.8814375 12.2619375,42.8239375 9.9125625,40.9645625 C6.7913125,38.5651875 4.6294375,35.0658125 3.5688125,31.2976875 C2.4488125,27.3533125 2.4406875,23.1145625 3.4638125,19.1483125 C3.6406875,18.7376875 3.5719375,18.0895625 4.0406875,17.8945625 C3.4431875,20.1614375 2.9700625,22.5358125 3.3331875,24.8833125 C3.5181875,25.9264375 3.8838125,27.0295625 4.7469375,27.7076875 C5.3450625,28.2014375 6.2800625,28.3826875 6.9413125,27.9083125 C7.6475625,27.4958125 7.8800625,26.5170625 7.5519375,25.7926875 C7.2081875,24.9776875 6.5075625,24.3833125 6.1075625,23.5976875 C5.2419375,22.0164375 5.3375625,20.1276875 5.5669375,18.3964375 C6.0506875,15.6220625 6.9919375,12.8814375 8.6275625,10.5670625 C11.0569375,7.0470625 14.8813125,4.6370625 18.9775625,3.5314375" id="Fill-4"></path>
                <path d="M20.4439375,13.45875 C20.8114375,13.180625 21.4170625,13.299375 21.5908125,13.746875 C21.7245625,14.3 21.5214375,14.86125 21.2858125,15.355 C20.6158125,16.720625 19.6170625,17.905 18.4758125,18.899375 C18.1926875,19.1575 17.8633125,19.35875 17.5145625,19.5125 C17.5614375,18.298125 17.9783125,17.1275 18.4951875,16.0375 C18.9745625,15.073125 19.5314375,14.08 20.4439375,13.45875" id="Fill-6"></path>
                <path d="M32.25425,13.9333125 C32.57925,13.5583125 33.138625,13.1839375 33.633625,13.4395625 C34.177375,13.7608125 33.892375,14.4814375 33.678,14.9233125 C32.9305,16.3020625 31.82175,17.4658125 30.61925,18.4583125 C30.60175,16.8220625 31.187375,15.1751875 32.25425,13.9333125" id="Fill-8"></path>
                <path d="M16.0805625,29.804 C17.4899375,28.619 19.0549375,27.60025 20.7280625,26.825875 C20.5511875,28.677125 20.1180625,30.5115 19.4180625,32.234 C18.8180625,33.62025 17.9280625,35.048375 16.4543125,35.615875 C15.6886875,35.903375 14.6918125,36.082125 14.0311875,35.479 C13.4036875,34.92275 13.4461875,33.98025 13.6280625,33.233375 C14.0093125,31.842125 15.0324375,30.745875 16.0805625,29.804" id="Fill-10"></path>
            </g>
        </g>
    </g>
</svg>