<?xml version="1.0" encoding="UTF-8" standalone="no"?>
<svg width="113px" height="50px" viewBox="0 0 113 50" version="1.1" xmlns="http://www.w3.org/2000/svg" xmlns:xlink="http://www.w3.org/1999/xlink">
    <!-- Generator: Sketch 3.8.3 (29802) - http://www.bohemiancoding.com/sketch -->
    <title>WL-GoreLogo</title>
    <desc>Created with Sketch.</desc>
    <defs></defs>
    <g id="Enterprise-Index---HiFi" stroke="none" stroke-width="1" fill="none" fill-rule="evenodd">
        <g id="enterprise_product_index" transform="translate(-139.000000, -868.000000)" fill="#C7C7C7">
            <g id="social-proof" transform="translate(0.000000, 459.000000)">
                <g id="WL-GoreLogo" transform="translate(139.000000, 409.000000)">
                    <path d="M0,49.5799477 L85.938576,49.5799477 L85.938576,0 L0,0 L0,49.5799477 Z M1.38157786,48.190323 L84.5558315,48.190323 L84.5558315,1.38806195 L1.38157786,1.38806195 L1.38157786,48.190323 Z" id="Fill-1"></path>
                    <path d="M59.0558118,16.9659255 L58.1763387,20.3571648 C58.1763387,20.3571648 51.7710903,20.3633816 51.3883205,20.3633816 C51.1908878,20.3633816 51.0664193,20.4682893 50.9922845,20.7643622 L50.1011059,24.0211642 C50.1011059,24.0211642 49.9025026,24.4283616 50.4347126,24.4283616 L57.1111384,24.4283616 L56.2312752,27.6723416 L49.5926971,27.6723416 C49.2462144,27.6595195 49.1592035,27.7329549 49.0850687,27.9552039 L47.8840846,32.457688 C47.8087792,32.7537609 47.6632409,33.0517766 48.2442237,33.0517766 L54.8586104,33.0517766 L53.9026614,36.5273306 L45.9425327,36.526165 C44.8351926,36.526165 43.7102942,35.4619344 44.0766763,33.9384411 C44.0766763,33.9384411 47.8052676,19.9899878 47.8087792,19.9748344 C48.2219833,18.3635295 49.1966611,16.9659255 51.2603404,16.9659255 L59.0558118,16.9659255 Z" id="Fill-2"></path>
                    <path d="M20.6341537,20.3628376 L12.6084741,20.3628376 C12.4367935,20.3616719 12.2854024,20.431999 12.2112675,20.6659043 C11.9755968,21.4095836 9.2977691,31.4609092 9.04063833,32.4081871 C8.87988283,32.9999444 9.1393547,33.0469586 9.41287316,33.0469586 L13.0287015,33.0469586 C13.598369,33.0469586 13.8098484,33.0865904 13.8956887,32.7287385 C14.0143044,32.2399462 15.0112226,28.5281555 15.1345205,28.078995 C15.246113,27.6717976 15.1193034,27.6752945 14.7880378,27.6717976 C14.0529325,27.6648038 12.9631507,27.6717976 12.9054036,27.6694663 C12.7399659,27.6636381 12.7563536,27.5606731 12.7938111,27.4378922 C12.914768,27.035746 13.6490929,24.3660386 13.6490929,24.3660386 L19.5806588,24.3613761 L17.0171548,34.060678 C16.657796,35.2080577 15.3577054,36.5236783 13.425908,36.5236783 C12.2830613,36.5236783 7.92627493,36.5318378 6.97617868,36.5178501 C5.94024212,36.5026967 4.65653918,35.4792636 5.09003278,33.9005966 C5.54342574,32.24694 8.71171384,20.5334098 9.02893283,19.4085658 C9.37541557,18.1760944 10.9853117,16.9653815 12.3852893,16.969267 L21.5385985,16.9665471 L20.6341537,20.3628376 Z" id="Fill-4"></path>
                    <path d="M43.1188154,20.682573 L42.176913,24.2179633 C42.0781966,24.5311323 42.1616959,24.4949974 41.8140426,24.5113164 L37.3878036,24.4984944 C37.0740963,24.4810097 36.9589922,24.5311323 37.0413209,24.1196609 C37.0413209,24.1196609 37.8997241,20.9786459 37.999611,20.6336161 C38.0983273,20.2885862 38.2684472,20.3962138 38.6395115,20.3868887 C39.6122384,20.3631873 42.8511497,20.3868887 42.8511497,20.3868887 C43.1808545,20.3868887 43.1843662,20.3375432 43.1188154,20.682573 M44.8426451,16.9707823 C44.8426451,16.9707823 39.1845976,16.9649541 37.9972699,16.9719479 C36.8099422,16.9801074 35.3291967,18.0210252 34.9109203,19.3669524 C34.6818827,20.1048034 30.2568143,36.5391813 30.2568143,36.5391813 L33.7247631,36.5403469 L36.7607791,25.1310491 L40.5057581,36.5298562 L43.9245438,36.5298562 C43.9245438,36.5298562 40.9743682,27.7086707 40.9966086,27.7086707 C42.4375554,27.7331492 44.4774335,27.4619433 45.0225195,25.8094524 C45.0225195,25.8094524 46.5056061,20.315396 46.7685897,19.3179955 C47.0869792,18.1107796 46.0584561,16.9661197 44.8426451,16.9707823" id="Fill-6"></path>
                    <path d="M29.9237929,21.1102468 L26.9022137,32.5719986 C26.7859391,32.9181941 26.7235097,33.053797 26.1269195,33.0514657 L22.2282084,33.0491344 C21.7490633,33.0164965 21.8473895,32.8529181 21.9472764,32.4736961 L25.0851302,20.797855 C25.1674589,20.4695326 25.2088183,20.3677333 25.5595931,20.3630707 C25.910758,20.3584082 29.3412493,20.3607394 29.7544533,20.3607394 C30.1680476,20.3595738 30.0225092,20.748898 29.9237929,21.1102468 M31.4599444,16.9656146 C31.4599444,16.9656146 26.819885,16.9632833 25.774584,16.9632833 C23.9789607,16.9632833 22.3183407,18.0508268 21.8735318,19.7899637 C21.6148403,20.7966893 18.0708057,33.9987436 18.0708057,33.9987436 C17.7477339,35.1461233 18.5160048,36.528574 20.0154791,36.528574 L26.6037235,36.5309053 C28.2023043,36.5188603 29.5527286,35.3928507 29.8863353,34.1343466 C30.2066757,32.9286848 33.7136429,19.8027858 33.7136429,19.8027858 C34.0105724,18.4708462 33.1076883,16.9656146 31.4599444,16.9656146" id="Fill-8"></path>
                    <path d="M5.54303555,8.54206832 L112.856699,8.54206832 L52.5347569,44.2340075 C58.9033282,35.2441926 66.3609009,26.0115357 72.7552242,17.3154625 L5.54303555,8.54206832 Z" id="Fill-10"></path>
                </g>
            </g>
        </g>
    </g>
</svg>