<?xml version="1.0" encoding="UTF-8" standalone="no"?>
<svg width="74px" height="50px" viewBox="0 0 74 50" version="1.1" xmlns="http://www.w3.org/2000/svg" xmlns:xlink="http://www.w3.org/1999/xlink">
    <!-- Generator: Sketch 3.8.3 (29802) - http://www.bohemiancoding.com/sketch -->
    <title>imd_business_school_logo</title>
    <desc>Created with Sketch.</desc>
    <defs></defs>
    <g id="Enterprise-Index---HiFi" stroke="none" stroke-width="1" fill="none" fill-rule="evenodd">
        <g id="enterprise_product_index" transform="translate(-1065.000000, -868.000000)" fill="#C7C7C7">
            <g id="social-proof" transform="translate(0.000000, 459.000000)">
                <g id="imd_business_school_logo" transform="translate(1065.000000, 409.000000)">
                    <path d="M57.34375,21.7708333 C64.8090278,22.2395833 65.8680556,31.3888889 65.8680556,35.3472222 C65.8680556,45.78125 62.2048611,48.9583333 57.34375,48.9583333 L57.34375,50 L57.4826389,50 L57.7777778,50 C68.7152778,49.6527778 73.4027778,42.8819444 73.4027778,34.9131944 C73.4027778,28.2291667 69.4965278,20.6423611 57.34375,20.6423611 L57.34375,21.7708333 L57.34375,21.7708333 Z" id="Shape"></path>
                    <path d="M14.0625,50 L0,50 L0,48.9583333 C2.34375,48.7326389 4.02777778,48.5243056 4.02777778,45.8506944 L4.02777778,24.84375 C4.02777778,21.9791667 1.99652778,21.8923611 0,21.7708333 L0,20.6423611 L14.0104167,20.6423611 L14.0104167,21.7708333 C12.3958333,21.9097222 11.0763889,22.4305556 11.0763889,24.84375 L11.0763889,45.8333333 C11.0763889,48.1770833 12.34375,48.7673611 14.0798611,48.9583333 L14.0625,50 L14.0625,50 Z" id="Shape"></path>
                    <path d="M55.7465278,50 L43.9409722,50 L43.9409722,48.9236111 C43.9409722,48.9236111 44.2708333,48.9409722 44.7395833,48.8888889 C45.78125,48.7673611 47.5868056,48.75 47.5868056,46.7361111 L47.5868056,24.4618056 L47.5520833,24.5138889 L37.1701389,50 L36.0243056,50 L25.5729167,24.6006944 L25.5729167,24.7048611 L25.5729167,44.8263889 C25.5729167,47.8645833 25.7638889,48.75 29.3576389,48.9583333 L29.3576389,50 L15.6770833,50 L15.6770833,48.9583333 C19.0625,48.6458333 19.6180556,47.96875 19.6180556,45.4513889 L19.6180556,24.84375 C19.6180556,22.5868056 18.8194444,21.9965278 15.7291667,21.7708333 L15.7291667,20.6423611 L30.1215278,20.6423611 L36.5972222,35.9027778 L42.7777778,20.6423611 L55.7465278,20.6423611 L55.7465278,21.7708333 C53.3159722,21.9444444 53.5416667,22.3263889 53.5416667,26.0416667 C53.5416667,26.0416667 53.5416667,47.0486111 53.5590278,47.1180556 C53.59375,47.4479167 53.5763889,47.4652778 53.59375,47.6215278 C53.7152778,48.4201389 54.1319444,48.7326389 55.7638889,48.9583333 L55.7638889,50 L55.7465278,50 Z" id="Shape"></path>
                    <path d="M36.4583333,10.46875 C32.7777778,10.46875 29.7916667,13.4548611 29.7916667,17.1354167 C29.7916667,20.8159722 32.7777778,23.8020833 36.4583333,23.8020833 C40.1388889,23.8020833 43.125,20.8159722 43.125,17.1354167 C43.125,13.4548611 40.1388889,10.46875 36.4583333,10.46875 L36.4583333,10.46875 Z M36.4583333,23.28125 C33.0729167,23.28125 30.3125,20.5208333 30.3125,17.1354167 C30.3125,13.75 33.0729167,10.9895833 36.4583333,10.9895833 C39.84375,10.9895833 42.6041667,13.75 42.6041667,17.1354167 C42.6041667,20.5208333 39.84375,23.28125 36.4583333,23.28125 L36.4583333,23.28125 Z" id="Shape"></path>
                    <path d="M20.2604167,11.3715278 C20.1388889,11.7361111 19.7222222,13.0208333 19.4965278,14.3055556 C19.2881944,15.5034722 19.2708333,16.71875 19.2534722,17.0659722 L19.2534722,17.3263889 L28.5243056,17.3263889 L28.5243056,16.9965278 C28.5243056,16.7534722 28.5416667,16.2673611 28.6284722,15.7986111 C28.7152778,15.2777778 28.90625,14.7569444 28.9756944,14.5659722 L29.0625,14.3229167 L20.3472222,11.1284722 L20.2604167,11.3715278 L20.2604167,11.3715278 Z M28.3854167,14.6180556 C28.2986111,14.8958333 28.1770833,15.2777778 28.1076389,15.6944444 C28.0381944,16.1111111 28.0034722,16.5104167 28.0034722,16.7881944 L19.7916667,16.7881944 C19.8090278,16.2847222 19.84375,15.3298611 20.0173611,14.375 C20.1909722,13.3333333 20.5034722,12.3090278 20.6770833,11.7881944 C21.0590278,11.9444444 27.9340278,14.4618056 28.3854167,14.6180556 L28.3854167,14.6180556 Z" id="Shape"></path>
                    <path d="M52.4479167,11.1111111 L43.7326389,14.3055556 L43.8194444,14.5486111 C43.8888889,14.7395833 44.0625,15.2604167 44.1666667,15.78125 C44.2534722,16.25 44.2708333,16.7361111 44.2708333,16.9791667 L44.2708333,17.3090278 L53.5416667,17.3090278 L53.5416667,17.0486111 C53.5416667,16.7013889 53.5069444,15.4861111 53.2986111,14.2881944 C53.0729167,13.0034722 52.65625,11.71875 52.5347222,11.3541667 L52.4479167,11.1111111 L52.4479167,11.1111111 Z M52.1180556,11.7881944 C52.2916667,12.3090278 52.6041667,13.3506944 52.7777778,14.375 C52.9340278,15.3298611 52.9861111,16.2847222 53.0034722,16.7881944 L44.7916667,16.7881944 C44.7916667,16.5104167 44.7569444,16.09375 44.6875,15.6944444 C44.6180556,15.2951389 44.4965278,14.8958333 44.4097222,14.6180556 C44.84375,14.4444444 51.7361111,11.9270833 52.1180556,11.7881944 L52.1180556,11.7881944 Z" id="Shape"></path>
                    <path d="M30.9895833,11.4409722 L31.1805556,11.2673611 L24.7569444,4.58333333 L24.5659722,4.77430556 C24.2881944,5.05208333 23.3506944,6.00694444 22.6041667,7.06597222 C21.8923611,8.05555556 21.3368056,9.13194444 21.1805556,9.44444444 L21.0590278,9.6875 L29.3923611,13.75 L29.5138889,13.5069444 C29.6006944,13.3159722 29.84375,12.8472222 30.15625,12.4131944 C30.4513889,11.9618056 30.8333333,11.5798611 30.9895833,11.4409722 L30.9895833,11.4409722 Z M21.7534722,9.42708333 C21.9791667,8.97569444 22.4479167,8.14236111 23.0034722,7.36111111 L23.0034722,7.36111111 C23.6284722,6.51041667 24.3576389,5.71180556 24.7395833,5.32986111 C25.0868056,5.67708333 30.1041667,10.9201389 30.4340278,11.25 C30.2256944,11.4583333 29.9479167,11.7534722 29.7048611,12.0833333 C29.4618056,12.4131944 29.2708333,12.7604167 29.1319444,13.0208333 C28.7152778,12.8298611 22.1875,9.63541667 21.7534722,9.42708333 L21.7534722,9.42708333 Z" id="Shape"></path>
                    <path d="M31.6145833,10.8506944 L31.6145833,10.8506944 L31.71875,10.78125 C31.71875,10.78125 32.2743056,10.3472222 32.8993056,10.0520833 C33.3680556,9.82638889 33.8715278,9.6875 34.0625,9.63541667 L34.3229167,9.56597222 L34.3229167,9.56597222 L34.3402778,9.56597222 L31.8923611,0.642361111 L31.875,0.642361111 L31.875,0.607638889 L31.5972222,0.694444444 C31.2326389,0.798611111 29.9479167,1.21527778 28.7673611,1.77083333 C27.6736111,2.29166667 26.6666667,2.98611111 26.3888889,3.17708333 L26.1805556,3.33333333 L31.5625,10.8680556 L31.6145833,10.8506944 L31.6145833,10.8506944 Z M31.4930556,1.28472222 C31.6319444,1.75347222 33.5416667,8.76736111 33.6805556,9.21875 C33.4027778,9.30555556 33.0208333,9.42708333 32.6388889,9.61805556 C32.2743056,9.79166667 31.9270833,10 31.6840278,10.1736111 C31.40625,9.79166667 27.1875,3.87152778 26.9097222,3.48958333 C27.3263889,3.21180556 28.125,2.69097222 28.9930556,2.27430556 C29.9479167,1.78819444 30.9722222,1.44097222 31.4930556,1.28472222 L31.4930556,1.28472222 Z" id="Shape"></path>
                    <path d="M35.2256944,9.35763889 C35.4340278,9.32291667 35.9548611,9.23611111 36.4930556,9.23611111 C37.03125,9.23611111 37.5520833,9.32291667 37.7604167,9.375 L38.0208333,9.42708333 L39.6875,0.295138889 L39.4270833,0.260416667 C39.0451389,0.208333333 37.7083333,0 36.40625,0 L36.40625,0 L36.40625,0 C35.1909722,0 33.9930556,0.190972222 33.6458333,0.243055556 L33.3854167,0.277777778 L34.9652778,9.40972222 L35.2256944,9.35763889 L35.2256944,9.35763889 Z M36.3888889,0.520833333 C37.4479167,0.520833333 38.5069444,0.659722222 39.0625,0.729166667 C38.9756944,1.21527778 37.6736111,8.35069444 37.5868056,8.81944444 C37.2916667,8.76736111 36.8923611,8.73263889 36.4930556,8.73263889 C36.0763889,8.73263889 35.6770833,8.76736111 35.3993056,8.81944444 C35.3125,8.35069444 34.0798611,1.19791667 33.9930556,0.729166667 C34.4791667,0.642361111 35.4340278,0.520833333 36.3888889,0.520833333 L36.3888889,0.520833333 Z" id="Shape"></path>
                    <path d="M38.8541667,9.61805556 C39.0451389,9.67013889 39.5659722,9.84375 40.0347222,10.0868056 C40.5034722,10.3298611 40.9375,10.6597222 41.1111111,10.78125 L41.3194444,10.9375 L46.9444444,3.55902778 L46.7361111,3.40277778 C46.4236111,3.17708333 45.3298611,2.39583333 44.1666667,1.80555556 C43.0902778,1.25 41.9270833,0.868055556 41.5972222,0.763888889 L41.3541667,0.677083333 L41.2847222,0.920138889 L38.6284722,9.53125 L38.8541667,9.61805556 L38.8541667,9.61805556 Z M43.90625,2.25694444 C44.84375,2.74305556 45.7465278,3.33333333 46.1979167,3.64583333 C45.9027778,4.02777778 41.5104167,9.80902778 41.2152778,10.1909722 C40.9722222,10.0173611 40.6423611,9.79166667 40.2777778,9.60069444 C39.9131944,9.40972222 39.53125,9.27083333 39.2534722,9.18402778 C39.3923611,8.73263889 41.5277778,1.78819444 41.6840278,1.33680556 C42.1527778,1.49305556 43.0555556,1.82291667 43.90625,2.25694444 L43.90625,2.25694444 Z" id="Shape"></path>
                    <path d="M51.7534722,9.39236111 C51.5798611,9.04513889 50.9375,7.86458333 50.1736111,6.82291667 C49.4618056,5.85069444 48.59375,4.98263889 48.3506944,4.73958333 L48.1597222,4.54861111 L47.9861111,4.73958333 L41.7534722,11.25 L41.9444444,11.4236111 C42.1006944,11.5625 42.4826389,11.9444444 42.7951389,12.3611111 C43.1076389,12.7951389 43.3506944,13.2638889 43.4375,13.4548611 L43.5590278,13.6979167 L51.8923611,9.61805556 L51.7534722,9.39236111 L51.7534722,9.39236111 Z M43.7847222,13.0208333 C43.6458333,12.7604167 43.4548611,12.4131944 43.2118056,12.0833333 C42.96875,11.7534722 42.6909722,11.4583333 42.4826389,11.25 C42.8125,10.9027778 47.8298611,5.65972222 48.1597222,5.3125 C48.5069444,5.65972222 49.1666667,6.37152778 49.7395833,7.13541667 C50.3645833,7.98611111 50.9027778,8.92361111 51.1631944,9.40972222 C50.7291667,9.61805556 44.2013889,12.8125 43.7847222,13.0208333 L43.7847222,13.0208333 Z" id="Shape"></path>
                </g>
            </g>
        </g>
    </g>
</svg>