<?xml version="1.0" encoding="UTF-8" standalone="no"?>
<svg width="75px" height="50px" viewBox="0 0 75 50" version="1.1" xmlns="http://www.w3.org/2000/svg" xmlns:xlink="http://www.w3.org/1999/xlink">
    <!-- Generator: Sketch 39 (31667) - http://www.bohemiancoding.com/sketch -->
    <title>Page 1</title>
    <desc>Created with Sketch.</desc>
    <defs>
        <polygon id="path-1" points="0 49.6889189 74.3243243 49.6889189 74.3243243 0.675405405 0 0.675405405"></polygon>
    </defs>
    <g id="Product-Pages---HiFi" stroke="none" stroke-width="1" fill="none" fill-rule="evenodd" opacity="0.3">
        <g id="enterprise_product_innovationsprint_expanded" transform="translate(-755.000000, -6028.000000)">
            <g id="Page-1" transform="translate(755.514706, 6028.000000)">
                <g id="Group-3" transform="translate(0.000000, 0.364595)" fill="#232A32">
                    <path d="M73.9945946,14.2333784 C70.5114865,-2.77472973 37.4885135,-3.85310811 16.2,9.105 L16.2,10.5367568 C37.4635135,-0.395 67.6236486,-0.328783784 70.3695946,15.3381081 C71.2912162,20.5212162 68.3716216,25.9205405 63.1554054,29.0293243 L63.1554054,33.0955405 C69.4297297,30.7935135 75.8662162,23.3509459 73.9945946,14.2333784 M35.3054054,44.0036486 C20.6189189,45.3583784 5.31216216,43.2245946 3.16621622,31.7462162 C2.11756757,26.0881081 4.69797297,20.0887838 8.11756757,16.3590541 L8.11756757,14.3678378 C1.95878378,19.7705405 -1.38040541,26.6056757 0.543243243,34.68 C2.99932432,45.0360811 16.1337838,50.9009459 36.1871622,48.9536486 C44.1243243,48.1847297 54.5054054,45.632027 61.727027,41.6651351 L61.727027,36.0347297 C55.172973,39.9394595 44.3337838,43.1651351 35.3054054,44.0036486" id="Fill-1"></path>
                </g>
                <path d="M60.5391892,12.1209459 L56.6885135,12.1209459 L56.6885135,29.2716216 C56.6885135,31.2817568 57.6601351,33.0290541 60.5391892,33.3087838 L60.5391892,12.1209459 Z" id="Fill-4" fill="#232A32"></path>
                <path d="M14.6882432,18.3831081 L10.8301351,18.3831081 L10.8281081,29.5878378 C10.8281081,31.6054054 11.8031081,33.3513514 14.6882432,33.6256757 L14.6882432,18.3831081 Z" id="Fill-6" fill="#232A32"></path>
                <mask id="mask-2" fill="white">
                    <use xlink:href="#path-1"></use>
                </mask>
                <g id="Clip-9"></g>
                <polygon id="Fill-8" fill="#232A32" mask="url(#mask-2)" points="10.8304054 16.292973 14.675 16.292973 14.675 12.642973 10.8304054 12.642973"></polygon>
                <path d="M37.7489865,33.4472973 C34.6327703,33.4472973 33.3125,31.2817568 33.3125,29.1472973 L33.3125,14.2695946 L37.1307432,14.2695946 L37.1307432,18.3831081 L40.0057432,18.3831081 L40.0057432,21.4668919 L37.1307432,21.4668919 L37.1307432,28.9121622 C37.1307432,29.7817568 37.5435811,30.2662162 38.4503378,30.2662162 L40.0057432,30.2662162 L40.0057432,33.4472973 L37.7489865,33.4472973" id="Fill-10" fill="#232A32" mask="url(#mask-2)"></path>
                <path d="M47.8761486,21.2837838 C46.5693919,21.2837838 45.5653378,21.9581081 45.1410135,22.8655405 C44.8916892,23.4108108 44.8018243,23.8358108 44.7727703,24.5067568 L50.6565541,24.5067568 C50.5822297,22.8655405 49.8376351,21.2837838 47.8761486,21.2837838 M44.7727703,27.1094595 C44.7727703,29.0621622 45.9950676,30.4972973 48.1558784,30.4972973 C49.850473,30.4972973 50.6842568,30.0283784 51.6619595,29.0621622 L54.0214189,31.3101351 C52.5099324,32.8033784 50.9247973,33.7121622 48.1281757,33.7121622 C44.475473,33.7121622 40.9747973,31.7182432 40.9747973,25.9060811 C40.9747973,20.9364865 44.0335811,18.1277027 48.0430405,18.1277027 C52.1200676,18.1277027 54.4633108,21.4155405 54.4633108,25.7331081 L54.4633108,27.1094595 L44.7727703,27.1094595" id="Fill-11" fill="#232A32" mask="url(#mask-2)"></path>
                <path d="M25.0562838,21.4666216 C26.1752027,21.4666216 26.6393919,22.0193243 26.6393919,22.9166216 L26.6393919,33.4706757 L30.4576351,33.4706757 L30.4576351,22.8956757 C30.4576351,20.7524324 29.3164189,18.3868919 25.9643919,18.3868919 L18.0772297,18.3828378 L18.0772297,33.4706757 L21.8961486,33.4706757 L21.8961486,21.4666216 L25.0562838,21.4666216 Z" id="Fill-12" fill="#232A32" mask="url(#mask-2)"></path>
                <path d="M64.9910811,13.2589189 C64.9910811,13.0737838 64.8748649,13.0163514 64.6289189,13.0163514 L64.4518919,13.0163514 L64.3856757,13.0163514 L64.3856757,13.5406757 C64.4241892,13.5406757 64.5971622,13.5487838 64.6289189,13.5487838 C64.8748649,13.5487838 64.9910811,13.4663514 64.9910811,13.2913514 L64.9910811,13.2589189 Z M65.362027,14.5717568 L65.0755405,14.5717568 C65.0491892,14.5717568 65.0275676,14.5555405 65.0167568,14.5332432 L64.6289189,13.8751351 C64.6181081,13.8609459 64.585,13.8454054 64.5748649,13.8454054 L64.4627027,13.8454054 L64.3978378,13.8454054 L64.3978378,14.5008108 C64.3978378,14.5332432 64.3755405,14.5717568 64.332973,14.5717568 L64.0748649,14.5717568 C64.0363514,14.5717568 64.0106757,14.5332432 64.0106757,14.5008108 L64.0106757,12.8460811 C64.0106757,12.7494595 64.0431081,12.7102703 64.1275676,12.6974324 C64.2201351,12.6872973 64.4627027,12.6751351 64.5971622,12.6751351 C65.0755405,12.6751351 65.3559459,12.8156757 65.3559459,13.2589189 L65.3559459,13.2913514 C65.3559459,13.565 65.2208108,13.7143243 65.0106757,13.7805405 L65.4147297,14.467027 C65.4201351,14.4764865 65.4241892,14.5008108 65.4241892,14.5156757 C65.4241892,14.5413514 65.4093243,14.5717568 65.362027,14.5717568 L65.362027,14.5717568 Z M64.6816216,12.3758108 C63.982973,12.3758108 63.4201351,12.9548649 63.4201351,13.6528378 C63.4201351,14.3562162 63.982973,14.9244595 64.6816216,14.9244595 C65.3816216,14.9244595 65.9613514,14.3562162 65.9613514,13.6528378 C65.9613514,12.9548649 65.3816216,12.3758108 64.6816216,12.3758108 L64.6816216,12.3758108 Z M64.6816216,15.1852703 C63.832973,15.1852703 63.1552703,14.5008108 63.1552703,13.6528378 C63.1552703,12.8089189 63.832973,12.1210811 64.6816216,12.1210811 C65.5275676,12.1210811 66.2201351,12.8089189 66.2201351,13.6528378 C66.2201351,14.5008108 65.5275676,15.1852703 64.6816216,15.1852703 L64.6816216,15.1852703 Z" id="Fill-13" fill="#232A32" mask="url(#mask-2)"></path>
            </g>
        </g>
    </g>
</svg>