<?xml version="1.0" encoding="utf-8"?>
<!-- Generator: Adobe Illustrator 16.0.0, SVG Export Plug-In . SVG Version: 6.00 Build 0)  -->
<!DOCTYPE svg PUBLIC "-//W3C//DTD SVG 1.1//EN" "http://www.w3.org/Graphics/SVG/1.1/DTD/svg11.dtd">
<svg version="1.1" id="Layer_1" xmlns="http://www.w3.org/2000/svg" xmlns:xlink="http://www.w3.org/1999/xlink" x="0px" y="0px"
	 width="144px" height="25px" viewBox="0 59.375 144 25" enable-background="new 0 59.375 144 25" xml:space="preserve">
<g id="Layer_1_1_">
	<g>
		<g>
			<path fill="#373E46" d="M22.265,70.172c0,5.373-4.375,9.748-9.748,9.748c-5.373,0-9.748-4.375-9.748-9.748
				c0-3.212,1.551-6.092,3.988-7.865l1.938,2.603c-1.606,1.163-2.658,3.102-2.658,5.262c0,3.6,2.935,6.48,6.48,6.48
				c3.544,0,6.48-2.936,6.48-6.48c0-2.16-1.052-4.043-2.659-5.262l1.938-2.603C20.714,64.08,22.265,66.96,22.265,70.172z
				 M9.249,70.172c0,1.772,1.44,3.267,3.268,3.267s3.268-1.439,3.268-3.267c0-1.052-0.499-2.049-1.329-2.603l-1.938,2.603
				l-1.883-2.603C9.803,68.123,9.249,69.12,9.249,70.172z M8.695,64.911l1.938,2.603c0.554-0.388,1.219-0.609,1.938-0.609
				c0.72,0,1.385,0.221,1.938,0.609l1.938-2.603c-1.052-0.775-2.381-1.274-3.821-1.274C11.188,63.637,9.748,64.135,8.695,64.911z"/>
		</g>
		<g>
			<path fill="#373E46" d="M36.055,66.129l-2.547,1.606c-0.831-1.218-2.215-1.717-3.545-1.717c-1.218,0-2.049,0.443-2.049,1.329
				c0,1.052,1.384,1.274,2.935,1.551c2.991,0.554,5.539,1.44,5.539,4.375c0,2.715-2.16,4.708-5.981,4.708
				c-3.102,0-5.483-1.329-6.646-3.601l2.659-1.439c0.941,1.606,2.492,2.215,4.099,2.215c1.495,0,2.492-0.553,2.492-1.494
				c0-1.219-1.385-1.44-3.102-1.717c-2.936-0.499-5.373-1.44-5.373-4.431c0-2.714,2.216-4.375,5.539-4.375
				C32.289,63.249,34.615,64.024,36.055,66.129z"/>
			<path fill="#373E46" d="M45.36,76.984c-0.775,0.609-1.828,0.997-3.157,0.997c-1.44,0-2.603-0.442-3.268-1.44
				c-0.499-0.664-0.665-1.495-0.665-2.658v-5.15h-1.772v-2.437h1.772v-2.825h3.323v2.825h3.268v2.492h-3.268v5.151
				c0,0.886,0.499,1.218,1.163,1.218c0.554,0,1.052-0.221,1.385-0.498L45.36,76.984z"/>
			<path fill="#373E46" d="M52.837,69.729c-0.333-0.166-0.775-0.332-1.274-0.332c-1.384,0-2.381,1.107-2.381,2.825v5.538h-3.268
				V66.295h3.268v1.717c0.72-1.163,1.828-1.938,3.046-1.938c0.554,0,1.163,0.167,1.496,0.333L52.837,69.729z"/>
			<path fill="#373E46" d="M53.889,67.348c1.551-0.886,3.157-1.329,4.929-1.329c2.936,0,4.929,1.052,4.929,3.988v4.874
				c0,0.554,0.167,0.72,0.609,0.72c0.222,0,0.443-0.055,0.554-0.166l0.333,2.049c-0.443,0.277-1.219,0.389-1.772,0.389
				c-1.107,0-2.104-0.443-2.437-1.44c-0.831,1.108-2.271,1.551-3.6,1.551c-2.326,0-3.988-1.274-3.988-3.544
				c0-2.77,2.437-3.379,4.209-3.545c1.772-0.166,2.77-0.277,2.77-1.107c0-0.886-1.053-1.108-1.828-1.108
				c-1.163,0-2.547,0.388-3.6,1.052L53.889,67.348z M60.425,72.222c-0.499,0.554-1.219,0.608-2.105,0.775
				c-0.831,0.11-1.606,0.332-1.606,1.384c0,0.887,0.665,1.274,1.606,1.274c1.219,0,2.105-0.665,2.105-2.104V72.222z"/>
			<path fill="#373E46" d="M73.439,76.984c-0.775,0.609-1.827,0.997-3.156,0.997c-1.44,0-2.603-0.442-3.268-1.44
				c-0.499-0.664-0.665-1.495-0.665-2.658v-5.15h-1.772v-2.437h1.772v-2.825h3.323v2.825h3.268v2.492h-3.268v5.151
				c0,0.886,0.499,1.218,1.163,1.218c0.554,0,1.052-0.221,1.385-0.498L73.439,76.984z"/>
			<path fill="#373E46" d="M84.96,72.887h-8.253c0.111,1.551,1.219,2.326,2.881,2.326c1.329,0,2.381-0.499,3.156-1.33l2.105,1.994
				c-1.274,1.273-2.991,2.16-5.428,2.16c-4.099,0-6.203-2.548-6.203-5.926c0-3.434,2.215-6.037,5.981-6.037
				c3.655,0,5.815,2.382,5.815,5.871C85.07,72.277,85.016,72.609,84.96,72.887z M81.803,70.671c-0.11-1.44-1.162-2.16-2.492-2.16
				c-1.439,0-2.437,0.831-2.547,2.16H81.803z"/>
			<path fill="#373E46" d="M97.588,75.489c0,1.827-0.277,3.212-1.33,4.376c-1.328,1.439-3.378,1.827-5.316,1.827
				s-3.6-0.388-4.984-1.219l1.219-2.548c0.941,0.609,2.271,1.053,3.711,1.053c1.883,0,3.378-0.721,3.378-2.658v-0.775
				c-0.886,1.052-2.104,1.551-3.544,1.551c-3.102,0-5.151-2.382-5.151-5.483s2.104-5.539,5.206-5.539
				c1.439,0,2.658,0.554,3.545,1.551v-1.329h3.322v9.194H97.588z M91.605,68.732c-1.717,0-2.603,1.218-2.603,2.769
				c0,1.551,0.886,2.825,2.603,2.825c1.718,0,2.659-1.219,2.659-2.825C94.32,69.951,93.379,68.732,91.605,68.732z"/>
			<path fill="#373E46" d="M105.785,78.092c-0.941,2.438-2.05,3.601-4.32,3.601c-1.107,0-2.16-0.333-3.047-0.941l1.219-2.16
				c0.388,0.276,0.831,0.442,1.33,0.442c0.719,0,1.107-0.442,1.439-1.107l0.277-0.554l-4.652-11.077h3.766l2.604,7.144l2.381-7.144
				h3.49L105.785,78.092z"/>
			<path fill="#373E46" d="M110.438,77.76v-2.381l5.205-6.259h-4.984v-2.825h9.637v2.215l-5.316,6.369h5.482v2.825h-10.023V77.76z"
				/>
			<path fill="#373E46" d="M132.425,72.887h-8.253c0.111,1.551,1.219,2.326,2.881,2.326c1.328,0,2.381-0.499,3.156-1.33l2.105,1.994
				c-1.274,1.273-2.991,2.16-5.428,2.16c-4.1,0-6.203-2.548-6.203-5.926c0-3.434,2.215-6.037,5.98-6.037
				c3.656,0,5.816,2.382,5.816,5.871C132.535,72.277,132.48,72.609,132.425,72.887z M129.268,70.671
				c-0.111-1.44-1.163-2.16-2.492-2.16c-1.439,0-2.438,0.831-2.548,2.16H129.268z"/>
			<path fill="#373E46" d="M140.4,69.729c-0.332-0.166-0.775-0.332-1.274-0.332c-1.384,0-2.382,1.107-2.382,2.825v5.538h-3.268
				V66.295h3.268v1.717c0.721-1.163,1.828-1.938,3.047-1.938c0.554,0,1.163,0.167,1.495,0.333L140.4,69.729z"/>
		</g>
	</g>
</g>
<g id="Hover">
</g>
</svg>
