<?xml version="1.0" encoding="UTF-8" standalone="no"?>
<svg width="185px" height="40px" viewBox="0 0 185 40" version="1.1" xmlns="http://www.w3.org/2000/svg" xmlns:xlink="http://www.w3.org/1999/xlink">
    <!-- Generator: Sketch 39 (31667) - http://www.bohemiancoding.com/sketch -->
    <title>Page 1</title>
    <desc>Created with Sketch.</desc>
    <defs>
        <polygon id="path-1" points="0 39.4222308 184.655385 39.4222308 184.655385 -7.6923077e-05 0 -7.6923077e-05"></polygon>
    </defs>
    <g id="Product-Pages---HiFi" stroke="none" stroke-width="1" fill="none" fill-rule="evenodd" opacity="0.3">
        <g id="enterprise_product_innovationsprint_expanded" transform="translate(-954.000000, -6034.000000)">
            <g id="Page-1" transform="translate(954.000000, 6034.000000)">
                <path d="M72.7329231,13.3375385 L72.7329231,31.5144615 L76.7967692,31.5144615 L76.7967692,7.89369231 L71.1721538,7.89369231 L64.0229231,25.4383077 L57.0852308,7.89369231 L51.2321538,7.89369231 L51.2321538,31.5144615 L55.0513846,31.5144615 L55.0513846,13.336 L55.1821538,13.336 L62.5083077,31.5144615 L65.3898462,31.5144615 L72.6021538,13.3375385 L72.7329231,13.3375385 L72.7329231,13.3375385 Z M82.6683077,7.37523077 C82.0129231,7.37523077 81.4413846,7.59830769 80.9713846,8.03984615 C80.4998462,8.48369231 80.2606154,9.04215385 80.2606154,9.70061538 C80.2606154,10.3490769 80.4975385,10.8967692 80.9644615,11.3283077 C81.4283077,11.7590769 82.0013846,11.9767692 82.6683077,11.9767692 C83.3344615,11.9767692 83.9106154,11.7590769 84.3798462,11.3290769 C84.8529231,10.8967692 85.0921538,10.3490769 85.0921538,9.70061538 C85.0921538,9.06523077 84.8590769,8.51215385 84.3990769,8.05830769 C83.9398462,7.60523077 83.3575385,7.37523077 82.6683077,7.37523077 L82.6683077,7.37523077 Z M80.636,31.5144615 L84.6183077,31.5144615 L84.6183077,14.5867692 L80.636,14.5867692 L80.636,31.5144615 L80.636,31.5144615 Z M96.4936923,14.1783077 C94.6667692,14.1783077 93.0375385,14.5706154 91.6513846,15.3421538 C90.2629231,16.116 89.1883077,17.2213846 88.4575385,18.6267692 C87.7306154,20.0283077 87.3613846,21.666 87.3613846,23.4913846 C87.3613846,25.0906154 87.7190769,26.5590769 88.4267692,27.8521538 C89.1352308,29.1475385 90.1375385,30.1613846 91.4067692,30.8644615 C92.6736923,31.5667692 94.1383077,31.9229231 95.7598462,31.9229231 C97.6521538,31.9229231 99.2675385,31.5444615 100.563692,30.7983077 L100.616,30.7683077 L100.616,27.1206154 L100.448308,27.2429231 C99.8613846,27.6698462 99.206,28.0113846 98.5006154,28.2567692 C97.7967692,28.5029231 97.1544615,28.6267692 96.5921538,28.6267692 C95.0298462,28.6267692 93.7752308,28.1375385 92.8652308,27.1736923 C91.9521538,26.2090769 91.4898462,24.8536923 91.4898462,23.1483077 C91.4898462,21.4321538 91.9721538,20.0421538 92.9229231,19.016 C93.8713846,17.9936923 95.1275385,17.4752308 96.6583077,17.4752308 C97.9667692,17.4752308 99.2421538,17.9183077 100.449077,18.7936923 L100.616,18.9144615 L100.616,15.0706154 L100.562154,15.0406154 C100.107538,14.7867692 99.4883077,14.5767692 98.7198462,14.4175385 C97.9544615,14.2583077 97.2052308,14.1783077 96.4936923,14.1783077 L96.4936923,14.1783077 Z M107.606769,17.5175385 L107.606769,14.5867692 L103.624462,14.5867692 L103.624462,31.5144615 L107.606769,31.5144615 L107.606769,22.8552308 C107.606769,21.3821538 107.940615,20.1729231 108.599077,19.2590769 C109.249846,18.3567692 110.116769,17.8990769 111.174462,17.8990769 C111.532923,17.8990769 111.936,17.9583077 112.372154,18.0752308 C112.803692,18.1913846 113.116,18.3175385 113.300615,18.4506154 L113.467538,18.5721538 L113.467538,14.5575385 L113.402923,14.5298462 C113.032154,14.3721538 112.507538,14.2929231 111.844462,14.2929231 C110.843692,14.2929231 109.948308,14.6144615 109.180615,15.2467692 C108.507538,15.8036923 108.021385,16.5667692 107.649077,17.5175385 L107.606769,17.5175385 L107.606769,17.5175385 Z M122.696769,14.1783077 C119.904462,14.1783077 117.687538,14.9967692 116.107538,16.6098462 C114.527538,18.2229231 113.726,20.456 113.726,23.2467692 C113.726,25.8975385 114.508308,28.0283077 116.050615,29.5821538 C117.592923,31.136 119.691385,31.9229231 122.288308,31.9229231 C124.993692,31.9229231 127.167538,31.0936923 128.747538,29.4575385 C130.326769,27.8236923 131.128308,25.6121538 131.128308,22.8867692 C131.128308,20.1952308 130.376769,18.0475385 128.894462,16.5044615 C127.410615,14.9606154 125.326,14.1783077 122.696769,14.1783077 L122.696769,14.1783077 Z M122.516769,28.6267692 C121.053692,28.6267692 119.899846,28.1413846 119.087538,27.186 C118.269077,26.2252308 117.855231,24.8567692 117.855231,23.116 C117.855231,21.3213846 118.269846,19.916 119.088308,18.9390769 C119.900615,17.9675385 121.042923,17.4752308 122.484462,17.4752308 C123.881385,17.4752308 124.994462,17.9452308 125.791385,18.8744615 C126.592923,19.8083077 126.999077,21.2021538 126.999077,23.0183077 C126.999077,24.8567692 126.616769,26.2683077 125.862923,27.2129231 C125.114462,28.1506154 123.989077,28.6267692 122.516769,28.6267692 L122.516769,28.6267692 Z M139.514462,14.1783077 C137.616,14.1783077 136.045231,14.6644615 134.845231,15.6221538 C133.638308,16.5852308 133.026,17.8483077 133.026,19.3775385 C133.026,20.1721538 133.158308,20.8783077 133.418308,21.4767692 C133.679846,22.0775385 134.085231,22.606 134.622923,23.0506154 C135.156769,23.4906154 135.980615,23.9521538 137.072923,24.4206154 C137.991385,24.7990769 138.676,25.1183077 139.110615,25.3706154 C139.536,25.6175385 139.837538,25.8652308 140.008308,26.1067692 C140.173692,26.3436923 140.257538,26.6667692 140.257538,27.0667692 C140.257538,28.2036923 139.406,28.7575385 137.653692,28.7575385 C137.003692,28.7575385 136.262154,28.6213846 135.449846,28.3536923 C134.636769,28.0867692 133.877538,27.7021538 133.192923,27.2098462 L133.026,27.0898462 L133.026,30.9706154 L133.087538,30.9990769 C133.657538,31.2621538 134.376769,31.4844615 135.224462,31.6590769 C136.070615,31.8344615 136.839077,31.9229231 137.506769,31.9229231 C139.567538,31.9229231 141.226769,31.4352308 142.436769,30.4713846 C143.655231,29.5021538 144.272923,28.2083077 144.272923,26.6267692 C144.272923,25.4852308 143.940615,24.5067692 143.285231,23.7175385 C142.634462,22.9352308 141.505231,22.2167692 139.929846,21.5813846 C138.674462,21.0775385 137.870615,20.6590769 137.539077,20.3383077 C137.219077,20.0283077 137.056769,19.5898462 137.056769,19.0344615 C137.056769,18.5421538 137.257538,18.1475385 137.669077,17.8283077 C138.083692,17.5075385 138.660615,17.3436923 139.384462,17.3436923 C140.056,17.3436923 140.742923,17.4498462 141.426769,17.6583077 C142.109846,17.866 142.709077,18.1444615 143.209846,18.4852308 L143.374462,18.5975385 L143.374462,14.916 L143.311385,14.8890769 C142.849846,14.6906154 142.240615,14.5213846 141.500615,14.3836923 C140.763692,14.2475385 140.095231,14.1783077 139.514462,14.1783077 L139.514462,14.1783077 Z M154.984462,14.1783077 C152.192923,14.1783077 149.975231,14.9967692 148.395231,16.6098462 C146.815231,18.2229231 146.013692,20.456 146.013692,23.2467692 C146.013692,25.8967692 146.796,28.0283077 148.338308,29.5821538 C149.880615,31.136 151.979077,31.9229231 154.576,31.9229231 C157.282154,31.9229231 159.454462,31.0936923 161.035231,29.4575385 C162.615231,27.8236923 163.415231,25.6121538 163.415231,22.8867692 C163.415231,20.1952308 162.664462,18.0475385 161.182154,16.5044615 C159.699077,14.9606154 157.613692,14.1783077 154.984462,14.1783077 L154.984462,14.1783077 Z M154.804462,28.6267692 C153.341385,28.6267692 152.188308,28.1413846 151.375231,27.186 C150.557538,26.2252308 150.142923,24.856 150.142923,23.116 C150.142923,21.3213846 150.557538,19.916 151.375231,18.9390769 C152.189077,17.9675385 153.331385,17.4752308 154.772154,17.4752308 C156.169846,17.4752308 157.282154,17.9452308 158.079077,18.8744615 C158.880615,19.8083077 159.286769,21.2021538 159.286769,23.0183077 C159.286769,24.8567692 158.904462,26.2683077 158.150615,27.2129231 C157.402154,28.1506154 156.276769,28.6267692 154.804462,28.6267692 L154.804462,28.6267692 Z M184.655231,17.8336923 L184.655231,14.5867692 L180.622923,14.5867692 L180.622923,9.53753846 L180.486769,9.57984615 L176.699077,10.7383077 L176.624462,10.7613846 L176.624462,14.5867692 L170.646,14.5867692 L170.646,12.456 C170.646,11.4636923 170.868308,10.7036923 171.305231,10.1975385 C171.739846,9.69676923 172.360615,9.44292308 173.152923,9.44292308 C173.722154,9.44292308 174.312154,9.57676923 174.905231,9.84138462 L175.053692,9.90830769 L175.053692,6.48753846 L174.984462,6.46215385 C174.430615,6.26292308 173.677538,6.16292308 172.744462,6.16292308 C171.568308,6.16292308 170.499077,6.41907692 169.567538,6.926 C168.634462,7.43446154 167.900615,8.15907692 167.386769,9.08138462 C166.875231,10.0029231 166.615231,11.0667692 166.615231,12.2436923 L166.615231,14.5867692 L163.806769,14.5867692 L163.806769,17.8336923 L166.615231,17.8336923 L166.615231,31.5144615 L170.646,31.5144615 L170.646,17.8336923 L176.624462,17.8336923 L176.624462,26.5275385 C176.624462,30.1083077 178.313692,31.9229231 181.644462,31.9229231 C182.192154,31.9229231 182.767538,31.8590769 183.356,31.7329231 C183.954462,31.6044615 184.362154,31.4752308 184.602154,31.3375385 L184.655231,31.3067692 L184.655231,28.0290769 L184.491385,28.1375385 C184.272923,28.2836923 184.000615,28.4029231 183.680615,28.4913846 C183.359846,28.5813846 183.092154,28.6267692 182.884462,28.6267692 C182.104462,28.6267692 181.526769,28.416 181.169077,28.0013846 C180.806769,27.5829231 180.622923,26.8506154 180.622923,25.826 L180.622923,17.8336923 L184.655231,17.8336923 L184.655231,17.8336923 Z" id="Fill-1" fill="#232A32"></path>
                <mask id="mask-2" fill="white">
                    <use xlink:href="#path-1"></use>
                </mask>
                <g id="Clip-4"></g>
                <polygon id="Fill-3" fill="#232A32" mask="url(#mask-2)" points="0 18.7322308 18.7323077 18.7322308 18.7323077 -7.6923077e-05 0 -7.6923077e-05"></polygon>
                <polygon id="Fill-5" fill="#4B525A" mask="url(#mask-2)" points="20.6823077 18.7322308 39.4146154 18.7322308 39.4146154 -7.6923077e-05 20.6823077 -7.6923077e-05"></polygon>
                <polygon id="Fill-6" fill="#373E46" mask="url(#mask-2)" points="0 39.4222308 18.7315385 39.4222308 18.7315385 20.6899231 0 20.6899231"></polygon>
                <polygon id="Fill-7" fill="#60666F" mask="url(#mask-2)" points="20.6823077 39.4222308 39.4146154 39.4222308 39.4146154 20.6899231 20.6823077 20.6899231"></polygon>
            </g>
        </g>
    </g>
</svg>