<?xml version="1.0" encoding="UTF-8" standalone="no"?>
<svg width="97px" height="49px" viewBox="0 0 97 49" version="1.1" xmlns="http://www.w3.org/2000/svg" xmlns:xlink="http://www.w3.org/1999/xlink">
    <!-- Generator: Sketch 39 (31667) - http://www.bohemiancoding.com/sketch -->
    <title>Page 1</title>
    <desc>Created with Sketch.</desc>
    <defs>
        <polygon id="path-1" points="96.553773 48.2694593 96.553773 0.50802139 48.2769979 0.50802139 0.000222816399 0.50802139 0.000222816399 48.2694593 96.553773 48.2694593"></polygon>
        <polygon id="path-3" points="0.432709447 6.68449198 6.70721925 6.68449198 6.70721925 0.488933452 0.432709447 0.488933452"></polygon>
    </defs>
    <g id="Product-Pages---HiFi" stroke="none" stroke-width="1" fill="none" fill-rule="evenodd" opacity="0.3">
        <g id="enterprise_product_innovationsprint_expanded" transform="translate(-535.000000, -6029.000000)">
            <g id="Page-1" transform="translate(534.970588, 6029.000000)">
                <g id="Group-3" transform="translate(0.000000, 0.235071)">
                    <mask id="mask-2" fill="white">
                        <use xlink:href="#path-1"></use>
                    </mask>
                    <g id="Clip-2"></g>
                    <path d="M57.8596999,23.3622995 C60.6515894,23.3622995 62.8738116,22.4346405 62.8738116,19.488265 C62.8738116,16.6280452 60.6515894,15.7011289 57.8596999,15.7011289 L55.7644831,15.7011289 L55.7644831,23.3622995 L57.8596999,23.3622995 M38.3164736,28.3147653 L35.3663844,18.7856506 L35.3032531,18.7856506 L32.28929,28.2880273 C33.1857546,28.6289364 34.2292781,28.8242721 35.3359329,28.8242721 C36.4180778,28.8242721 37.430407,28.6371064 38.3164736,28.3147653 M70.6508467,19.7801545 C70.6508467,26.1163102 66.2561646,29.8945336 58.8341503,29.8945336 L55.7644831,29.8945336 L55.7644831,39.021836 L41.6854575,39.021836 L40.2906269,34.6553773 C38.8007279,35.1433452 37.1147504,35.4159239 35.3359329,35.4159239 C33.5036393,35.4159239 31.7782977,35.1270053 30.2631462,34.6137849 L28.8133541,39.021836 L20.1821895,39.021836 L21.1328728,36.4728164 C21.0192365,36.5738265 20.9041147,36.6778075 20.786022,36.7728758 C18.6321301,38.5026738 15.9419935,39.4570707 12.6049465,39.5172311 L12.1102941,39.5209447 C8.28453654,39.5209447 4.52636661,38.4633096 1.35346108,36.657754 L4.28869578,30.828877 C7.46680036,32.7072193 9.46323529,33.1283422 12.158571,33.0741236 C13.5541444,33.0481283 14.5620172,32.7926322 15.2222965,32.1115567 C15.6196524,31.6956328 15.8320707,31.1824124 15.8439542,30.6298277 C15.8714349,29.1146762 13.7168004,28.4046346 11.0793969,27.5898693 C8.9411022,26.9251337 6.51240345,26.0212418 4.61846405,24.6323529 C2.3709893,22.979798 1.30147059,20.9128045 1.35346108,17.9946524 C1.38836898,15.8734403 2.17268271,13.9616756 3.62841652,12.4524658 C5.71620618,10.2941176 9.08890374,8.98024361 13.1330214,8.98024361 L13.1560458,8.98024361 C16.6238116,8.98618538 20.8550951,9.96806298 23.9232769,11.5277778 L20.6137106,17.2794118 C17.2618093,15.6595365 15.5736037,15.5080214 13.661839,15.4047831 C10.8194444,15.2495544 9.37930778,16.2700535 9.36148247,17.3655674 C9.33771539,18.7017231 12.0479055,19.9131016 14.613265,20.7345514 C18.4917558,21.9682115 23.4211973,23.6170529 24.1698604,28.3786393 L31.2606209,9.48306595 L39.4929441,9.48306595 L47.7958259,32.0781343 L47.7958259,9.48306595 L57.2989453,9.48603684 C66.3853981,9.48603684 70.6508467,12.7243018 70.6508467,19.7801545 M0.000222816399,48.2694593 L0.000222816399,0.50802139 L96.5539958,0.50802139 L48.7947861,48.2694593 L0.000222816399,48.2694593" id="Fill-1" fill="#232A32" mask="url(#mask-2)"></path>
                </g>
                <g id="Group-6" transform="translate(59.417706, 41.827466)">
                    <mask id="mask-4" fill="white">
                        <use xlink:href="#path-3"></use>
                    </mask>
                    <g id="Clip-5"></g>
                    <path d="M2.92082591,3.363265 L2.92082591,2.26032383 L3.65909091,2.26032383 C4.03045157,2.26032383 4.43003565,2.33905229 4.43003565,2.78319964 C4.43003565,3.33429887 4.02228164,3.363265 3.56996435,3.363265 L2.92082591,3.363265 Z M2.92082591,3.82375223 L3.5439691,3.82375223 L4.48351159,5.37084076 L5.0932858,5.37084076 L4.07278669,3.79775698 C4.59863339,3.73685383 5.00044563,3.45610517 5.00044563,2.81736482 C5.00044563,2.11252228 4.58303624,1.7998366 3.74153298,1.7998366 L2.3808675,1.7998366 L2.3808675,5.37084076 L2.92082591,5.37084076 L2.92082591,3.82375223 Z M3.57813428,6.6847148 C5.26188354,6.6847148 6.70721925,5.37084076 6.70721925,3.57939691 C6.70721925,1.7998366 5.26188354,0.488933452 3.57813428,0.488933452 C1.87210339,0.488933452 0.432709447,1.7998366 0.432709447,3.57939691 C0.432709447,5.37084076 1.87210339,6.6847148 3.57813428,6.6847148 L3.57813428,6.6847148 Z M1.05362448,3.57939691 C1.05362448,2.11252228 2.16102198,1.00215389 3.57813428,1.00215389 C4.97593583,1.00215389 6.08333333,2.11252228 6.08333333,3.57939691 C6.08333333,5.07078134 4.97593583,6.16703803 3.57813428,6.16703803 C2.16102198,6.16703803 1.05362448,5.07078134 1.05362448,3.57939691 L1.05362448,3.57939691 Z" id="Fill-4" fill="#232A32" mask="url(#mask-4)"></path>
                </g>
            </g>
        </g>
    </g>
</svg>